<svg id="Слой_1" data-name="Слой 1" xmlns="http://www.w3.org/2000/svg" viewBox="0 0 399.57 306.65"><defs><style>.cls-1{fill:#f9dfa5;}.cls-2{fill:#fff;}.cls-3{fill:#3a3e44;}.cls-4{fill:#ddc085;}.cls-5{fill:#efc67d;}.cls-6,.cls-7{fill:#f95d73;}.cls-6{opacity:0.5;}.cls-8{fill:#bc5806;}.cls-9{fill:#cc5d0a;}</style></defs><title>девочкааааа</title><rect class="cls-1" x="72.44" y="34.03" width="251.27" height="272.62" rx="120.47" ry="120.47"/><ellipse class="cls-2" cx="147.39" cy="173.76" rx="17.77" ry="17.54"/><ellipse class="cls-2" cx="248.77" cy="173.76" rx="17.77" ry="17.54"/><ellipse class="cls-3" cx="147.39" cy="176.83" rx="11.89" ry="11.74"/><ellipse class="cls-3" cx="248.77" cy="176.83" rx="11.89" ry="11.74"/><path class="cls-3" d="M158.5,157l-24.95,3.87a6.82,6.82,0,0,1-7.79-5.6h0a6.75,6.75,0,0,1,5.67-7.68l24.95-3.88a6.84,6.84,0,0,1,7.79,5.6h0A6.75,6.75,0,0,1,158.5,157Z" transform="translate(-3.73 -8.08)"/><path class="cls-3" d="M270.28,160.6l-25-3.24a6.75,6.75,0,0,1-5.87-7.54h0A6.81,6.81,0,0,1,247,144l25.05,3.23a6.76,6.76,0,0,1,5.86,7.54h0A6.81,6.81,0,0,1,270.28,160.6Z" transform="translate(-3.73 -8.08)"/><path class="cls-1" d="M326.27,171v41.7a20.85,20.85,0,1,0,0-41.7Z" transform="translate(-3.73 -8.08)"/><path class="cls-4" d="M326,179.55v24.6a12.3,12.3,0,1,0,0-24.6Z" transform="translate(-3.73 -8.08)"/><path class="cls-1" d="M77.33,212.7V171a20.85,20.85,0,1,0,0,41.7Z" transform="translate(-3.73 -8.08)"/><path class="cls-4" d="M77.61,204.15v-24.6a12.3,12.3,0,1,0,0,24.6Z" transform="translate(-3.73 -8.08)"/><path class="cls-5" d="M210.45,231.49h-17.3c-4.32,0-8-3.75-9-8.76a14.38,14.38,0,0,0-.27,2.74h0c0,6.32,4.16,11.5,9.24,11.5h17.3c5.09,0,9.25-5.18,9.25-11.5h0a13.61,13.61,0,0,0-.28-2.74C218.43,227.74,214.78,231.49,210.45,231.49Z" transform="translate(-3.73 -8.08)"/><path class="cls-6" d="M290.67,226.75l-17.45,3.41a6.82,6.82,0,0,1-8-5.29h0a6.75,6.75,0,0,1,5.36-7.91l17.45-3.4a6.82,6.82,0,0,1,8,5.29h0A6.75,6.75,0,0,1,290.67,226.75Z" transform="translate(-3.73 -8.08)"/><path class="cls-6" d="M112.58,226.75,130,230.16a6.84,6.84,0,0,0,8-5.29h0a6.77,6.77,0,0,0-5.36-7.91l-17.45-3.4a6.81,6.81,0,0,0-8,5.29h0A6.74,6.74,0,0,0,112.58,226.75Z" transform="translate(-3.73 -8.08)"/><path class="cls-3" d="M157.89,256.45v3.1c0,19.23,19.76,35,43.91,35h0c24.16,0,43.92-15.73,43.92-35v-3.1c0-1.86-1.9-3.37-4.24-3.37H162.13C159.78,253.08,157.89,254.59,157.89,256.45Z" transform="translate(-3.73 -8.08)"/><rect class="cls-2" x="175.3" y="244.99" width="45.54" height="13.71" rx="2.92" ry="2.92"/><path class="cls-7" d="M175.72,287.63a51.39,51.39,0,0,0,26.08,6.88h0a51.34,51.34,0,0,0,26.08-6.88c-.43-7.68-11.93-13.84-26.08-13.84S176.16,280,175.72,287.63Z" transform="translate(-3.73 -8.08)"/><path class="cls-8" d="M77.33,171s30.2-18.69,33.21-69.65c0-42,170.08-48.55,187-2C293.89,141.53,326.27,171,326.27,171S380.42,34.48,245.72,32.55s-87.83,0-87.83,0S36.44,29.85,77.33,171Z" transform="translate(-3.73 -8.08)"/><path class="cls-9" d="M150.8,32.89h97.7a47,47,0,0,1,47,47v38a12,12,0,0,1-12,12H115.8a12,12,0,0,1-12-12v-38a47,47,0,0,1,47-47Z"/><path class="cls-8" d="M304.36,34.78s36.39-52.36,74.55-10.42,20.88,88.15,18,96-9.57,19.91-9.82,28.44-8.9-11.38-8.9-19.91-5.76,33.48,2.16,42c0,0-26.79-14.25-45.07-84.63,0,0-1-16.35-14.69-23.46S304.36,34.78,304.36,34.78Z" transform="translate(-3.73 -8.08)"/><path class="cls-8" d="M102.67,34.78S66.27-17.58,28.12,24.36s-20.88,88.15-18,96,9.56,19.91,9.82,28.44,8.9-11.38,8.9-19.91,5.75,33.48-2.16,42c0,0,26.78-14.25,45.07-84.63,0,0,1-16.35,14.68-23.46S102.67,34.78,102.67,34.78Z" transform="translate(-3.73 -8.08)"/><path class="cls-7" d="M317.65,70.67,294,51.93a10.84,10.84,0,0,1-1.71-15.31h0a11.16,11.16,0,0,1,15.5-1.69l23.7,18.74A10.83,10.83,0,0,1,333.15,69h0A11.14,11.14,0,0,1,317.65,70.67Z" transform="translate(-3.73 -8.08)"/><path class="cls-7" d="M91.31,71.1l21.47-21.2a10.82,10.82,0,0,0,0-15.4h0a11.17,11.17,0,0,0-15.6,0L75.71,55.7a10.82,10.82,0,0,0,0,15.4h0A11.16,11.16,0,0,0,91.31,71.1Z" transform="translate(-3.73 -8.08)"/></svg>